<svg xmlns="http://www.w3.org/2000/svg" xmlns:xlink="http://www.w3.org/1999/xlink" viewBox="0 0 32 32" version="1.1">
<g stroke="none" stroke-width="1" fill="none" fill-rule="evenodd">
<g transform="translate(-1021.000000, -1310.000000)" fill="#3b5998">
<path d="M1041.155,1320.656 L1039.649,1320.657 C1038.468,1320.657 1038.239,1321.218 1038.239,1322.041 L1038.239,1323.857 L1041.056,1323.857 L1040.689,1326.702 L1038.239,1326.702 L1038.239,1334 L1035.302,1334 L1035.302,1326.702 L1032.846,1326.702 L1032.846,1323.857 L1035.302,1323.857 L1035.302,1321.76 C1035.302,1319.325 1036.789,1318 1038.96,1318 C1040,1318 1040.894,1318.077 1041.155,1318.112 L1041.155,1320.656 Z M1037,1310 C1028.164,1310 1021,1317.163 1021,1326 C1021,1334.836 1028.164,1342 1037,1342 C1045.837,1342 1053,1334.836 1053,1326 C1053,1317.163 1045.837,1310 1037,1310 L1037,1310 Z"></path>
</g>
</g>
</svg>