<svg xmlns="http://www.w3.org/2000/svg" xmlns:xlink="http://www.w3.org/1999/xlink" viewBox="0 0 32 32" version="1.1">
<g stroke="none" stroke-width="1" fill="none" fill-rule="evenodd">
<g transform="translate(-931.000000, -1310.000000)" fill="#4b9cff">
<path d="M953.362,1322.737 C953.368,1322.878 953.372,1323.019 953.372,1323.162 C953.372,1327.499 950.07,1332.501 944.032,1332.501 C942.178,1332.501 940.453,1331.958 939,1331.027 C939.257,1331.057 939.518,1331.072 939.783,1331.072 C941.321,1331.072 942.736,1330.548 943.86,1329.667 C942.423,1329.641 941.211,1328.692 940.793,1327.388 C940.994,1327.426 941.199,1327.446 941.411,1327.446 C941.71,1327.446 942,1327.406 942.276,1327.331 C940.774,1327.03 939.643,1325.703 939.643,1324.113 L939.643,1324.071 C940.085,1324.317 940.592,1324.465 941.13,1324.482 C940.249,1323.893 939.669,1322.888 939.669,1321.75 C939.669,1321.148 939.831,1320.584 940.114,1320.099 C941.733,1322.085 944.152,1323.392 946.88,1323.529 C946.824,1323.289 946.795,1323.038 946.795,1322.781 C946.795,1320.968 948.265,1319.498 950.077,1319.498 C951.022,1319.498 951.875,1319.897 952.473,1320.535 C953.221,1320.388 953.924,1320.115 954.558,1319.739 C954.313,1320.505 953.792,1321.148 953.115,1321.555 C953.779,1321.475 954.411,1321.299 955,1321.038 C954.56,1321.696 954.003,1322.274 953.362,1322.737 M947,1310 C938.163,1310 931,1317.163 931,1326 C931,1334.836 938.163,1342 947,1342 C955.837,1342 963,1334.836 963,1326 C963,1317.163 955.837,1310 947,1310"></path>
</g>
</g>
</svg>