<svg xmlns="http://www.w3.org/2000/svg" xmlns:xlink="http://www.w3.org/1999/xlink" viewBox="0 0 30 18" version="1.1">
<g stroke="none" stroke-width="1" fill="none" fill-rule="evenodd">
<g transform="translate(-1124.000000, -1317.000000)" fill="#4c75a3">
<path d="M1140.47779,1334.96813 C1140.47779,1334.96813 1141.07963,1334.84741 1141.32062,1334.6063 C1141.5613,1334.3652 1141.5613,1333.76227 1141.5613,1333.76227 C1141.5613,1333.76227 1141.5613,1331.22983 1142.6445,1330.86801 C1143.72801,1330.50619 1145.17238,1333.27973 1146.61707,1334.3652 C1147.70027,1335.20923 1148.66328,1334.96813 1148.66328,1334.96813 L1152.63554,1334.96813 C1152.63554,1334.96813 1154.68207,1334.84741 1153.71905,1333.03862 C1153.59856,1332.91823 1153.1172,1331.71205 1150.70981,1329.42105 C1148.18193,1327.00901 1148.54279,1327.37083 1151.55234,1323.15032 C1153.35788,1320.61789 1154.2004,1319.05021 1153.95973,1318.32657 C1153.71905,1317.72364 1152.39486,1317.84435 1152.39486,1317.84435 L1147.82076,1317.84435 C1147.82076,1317.84435 1147.45959,1317.84435 1147.21891,1317.96475 C1146.97792,1318.08546 1146.85774,1318.56768 1146.85774,1318.56768 C1146.85774,1318.56768 1146.2559,1320.49718 1145.29288,1322.18557 C1143.24635,1325.80315 1142.52432,1325.92386 1142.16315,1325.68275 C1141.44081,1325.20022 1141.5613,1323.63254 1141.5613,1322.54739 C1141.5613,1319.05021 1142.04265,1317.60293 1140.59828,1317.24142 C1140.11662,1317.12071 1139.75576,1317 1138.43157,1317 C1136.8667,1317 1135.42202,1317 1134.69999,1317.36182 C1134.21833,1317.72364 1133.85716,1318.32657 1134.09814,1318.32657 C1134.33882,1318.32657 1135.06116,1318.56768 1135.42202,1319.05021 C1135.90369,1319.65314 1135.90369,1321.22082 1135.90369,1321.22082 C1135.90369,1321.22082 1136.14436,1325.32093 1135.30184,1325.80315 C1134.69999,1326.16497 1133.85716,1325.44133 1132.05161,1322.18557 C1131.0886,1320.49718 1130.36657,1318.56768 1130.36657,1318.56768 C1130.36657,1318.56768 1130.24607,1318.32657 1130.0054,1318.08546 C1129.64423,1317.84435 1129.28305,1317.84435 1129.28305,1317.84435 L1124.94963,1317.84435 C1124.94963,1317.84435 1124.34778,1317.84435 1124.10711,1318.20586 C1123.86612,1318.44728 1124.10711,1319.05021 1124.10711,1319.05021 C1124.10711,1319.05021 1127.47751,1327.25043 1131.20909,1331.35055 C1134.69999,1335.20923 1138.67225,1334.96813 1138.67225,1334.96813 L1140.47779,1334.96813 Z"></path>
</g>
</g>
</svg>